PathFileType	4	(X/Y/Z)	OpenSim_Sub10_CSStiffKnee_Accel.trc
DataRate	CameraRate	NumFrames	NumMarkers	Units	OrigDataRate	OrigDataStartFrame	OrigNumFrames
100	100	20	8	m	100	5109	8174
Frame#	Time	torso_imu_offset_imu	pelvis_imu_offset_imu	tibia_r_imu_offset_imu	femur_r_imu_offset_imu	tibia_l_imu_offset_imu	femur_l_imu_offset_imu	toes_r_imu_offset_imu	toes_l_imu_offset_imu
				X1	Y1	Z1	X2	Y2	Z2	X3	Y3	Z3	X4	Y4	Z4	X5	Y5	Z5	X6	Y6	Z6	X7	Y7	Z7	X8		Y8	Z8	

5109	51.08000000	8.91902969	-1.41387281	6.21940864	8.65272565	3.20520939	3.36319683	9.96850755	-1.05304443	0.29753089	9.58490166	-0.36660839	-0.60921551	9.25778261	-0.08034848	1.71435843	8.24290946	4.35689611	0.49586012	5.12189243	-0.62702350	8.69382513	8.55918672	1.88506690	6.98138775
5110	51.09000000	8.94997066	-1.42276858	6.27001470	8.63101784	3.15361657	3.33688814	10.09029466	-0.83640975	0.29357493	9.53568748	-0.37163712	-0.50832308	9.10396037	-0.06795637	1.73200928	8.36311997	4.29586860	0.46482353	5.16106862	-0.86220985	8.68846656	8.48260584	1.72441225	6.43681804
5111	51.10000000	9.08773663	-1.38776211	6.29872238	8.60320786	3.11856138	3.19943354	10.27672203	-0.39059396	0.46528378	9.57342612	-0.43672008	-0.34502641	8.91271311	-0.05530468	1.50881337	8.07878766	4.53054326	0.46093079	4.95904277	-0.76825857	8.84649752	8.89132523	1.86656804	6.09964505
5112	51.11000000	9.23184206	-1.37429559	6.26577852	8.53109167	3.09100766	3.03226278	10.46282084	-0.09323796	0.54396444	9.67714831	-0.57269045	-0.26612013	8.92073577	-0.13207700	1.20118130	7.72013916	4.58414400	0.44067008	5.22877684	-0.34550449	8.93397369	9.53122225	1.99499572	5.86738937
5113	51.12000000	9.26277114	-1.41254044	6.15334580	8.45346441	3.03571127	2.80802865	10.47601206	0.13945356	0.61721063	9.80233127	-0.79673126	-0.31975215	9.05495084	-0.50120446	0.99399137	7.76473939	4.31995634	0.52222391	5.27787239	-0.18998903	8.96292300	9.57633334	1.24111352	5.11961638
5114	51.13000000	9.28119520	-1.47650705	6.09533316	8.37719401	2.98555927	2.57348335	10.32417138	0.32668308	0.88070678	9.87035942	-1.06743542	-0.38170579	8.89750802	-1.13251950	0.75705706	7.86050100	4.25066928	0.66116220	5.11037961	-0.15374100	9.00889068	9.86598079	0.77852992	4.54783473
5115	51.14000000	9.27146720	-1.59353335	6.04282903	8.33693325	2.90398131	2.35214782	10.16964401	0.34424624	1.18432677	9.83785321	-1.22473152	-0.38946201	8.44874728	-1.63410737	0.51365890	7.63908861	4.14765620	0.63315007	5.11871687	0.06354241	9.09963447	10.28504864	1.00148256	4.26398709
5116	51.15000000	9.31673263	-1.77176378	5.98863699	8.33579720	2.81042155	2.15503117	10.09437299	0.29447852	1.46909355	9.67464793	-1.31851862	-0.36697425	7.87369375	-2.08990479	0.37286937	7.29067597	4.01351086	0.41903828	5.55912534	0.30870048	8.92638658	9.80334593	1.47257892	3.86629744
5117	51.16000000	9.32970473	-1.84762875	5.99488300	8.32301367	2.65584082	1.96562600	10.21306048	0.09946106	1.75228914	9.48096217	-1.39171621	-0.25720043	7.34569712	-2.84243440	0.14629461	7.00382684	3.89053790	0.22317125	5.45506571	0.20900491	9.03002262	9.85862307	1.57889358	3.20195616
5118	51.17000000	9.20645628	-1.79264446	5.96293065	8.35375236	2.54416231	1.72415451	10.36301582	-0.49790793	1.92890034	9.35616544	-1.36552693	-0.05805863	6.79064682	-3.72601028	0.17111911	6.70241247	3.77719162	-0.18983630	5.09778807	-0.07161944	9.05480735	7.46824773	3.72781779	4.45418743
5119	51.18000000	9.08728991	-1.73238692	5.96353387	8.43803387	2.57670468	1.84042396	10.20610794	-1.64591959	2.38840814	9.31376177	-1.23979842	0.09494057	6.52961161	-5.01672680	0.55471922	6.35110917	3.34276776	-0.35343098	4.95784449	-0.09189127	9.14393208	9.30805711	2.16542484	-7.01273571
5120	51.19000000	8.92907342	-1.69635891	6.27400721	8.46949134	2.50782580	2.51319379	9.91657871	-3.35893283	2.31991908	9.32259898	-1.21448204	0.33332420	7.19373161	-3.82681947	0.23759819	6.29032279	2.73198017	-0.41675331	5.11961992	-0.11884061	9.15791705	8.50030152	1.25750331	-4.82974839
5121	51.20000000	8.76193530	-1.56901715	6.75577084	8.87334354	2.63250895	3.67873784	10.07530661	-5.44819331	2.06068647	9.32799154	-1.45121030	0.45765679	10.49196028	-1.50601732	0.21794407	7.37022503	1.98943743	0.65169054	5.39787178	-0.39234420	9.97893036	16.84838797	-2.22939866	21.13758770
5122	51.21000000	9.33286400	-1.47201954	7.14349641	9.61083002	2.60645005	6.04467067	11.02631933	-7.26875952	2.46079899	9.22912286	-1.90624938	0.46700713	15.41703360	0.49551319	0.44279148	10.48303855	2.32454928	1.89690562	4.18832351	-1.55949865	10.54116323	15.03081887	-12.30791005	21.01380516
5123	51.22000000	10.62305331	-1.18315803	7.85031888	10.69473663	1.59492154	8.39433320	13.07269931	-8.46372804	2.09174964	9.37885146	-2.47794326	0.61860584	21.91369218	2.38503768	4.28689406	18.43650257	4.56788343	1.00574941	2.90503379	-1.84947754	12.01885465	12.42483060	-3.44808172	16.49656152
5124	51.23000000	12.14419694	-0.12486793	8.08487612	12.74672314	0.16934136	8.78272492	15.76767350	-8.29467372	2.10598449	10.12366581	-3.06867890	0.54101757	21.63478232	0.41458096	7.98246996	27.13915904	7.44118853	-0.58503525	1.72126874	-2.52987224	12.65770354	21.50615489	10.84103220	21.84722455
5125	51.24000000	13.15017453	1.58676991	7.56883580	15.38803818	-1.52908216	8.31339145	18.18396989	-6.23176768	3.77088873	11.28161087	-3.21959859	0.19737174	15.89169536	-3.45151651	7.06160093	24.15142265	7.49252937	-2.19534780	3.34385443	-3.57495469	12.89570311	17.38217906	-0.53823616	15.59581335
5126	51.25000000	13.14928436	2.10711015	6.60860040	16.43349465	-2.63519110	7.44234722	19.32693261	-2.70254643	3.71730216	12.71502962	-2.77624599	0.18233654	12.50999198	-6.71420606	4.38707072	15.02082549	5.54159091	-3.58857599	3.16529607	-3.10164724	12.86097373	9.08689818	-5.61283969	11.57100290
5127	51.26000000	12.51638486	2.20300321	6.02933132	13.79492939	-1.68529952	6.58800510	18.68679655	0.20721398	1.07142513	14.03060232	-2.14490432	0.23712512	9.50147750	-8.94393616	1.92939082	8.93295923	3.48726936	-3.30879369	6.22257111	-1.45708180	15.16460900	6.82155134	0.20232001	12.24620287
5128	51.27000000	11.62020895	2.92302729	5.90892225	10.57656367	-0.04037791	5.75393750	17.70553475	1.56457387	-1.14287979	14.55760152	-1.31263076	0.21018250	6.81549477	-9.21799460	-1.24966489	6.68035953	1.78332200	-1.78817675	4.18141758	1.96880965	12.03260773	6.84565615	-0.83085603	11.19397039
